<svg width="320.000000" height="100.021484" viewBox="0 0 320 100.021" fill="none" xmlns="http://www.w3.org/2000/svg" xmlns:xlink="http://www.w3.org/1999/xlink">
	<desc>
			Created with Pixso.
	</desc>
	<defs>
		<clipPath id="clip889_26">
			<rect id="Layer_1" rx="0.000000" width="319.671753" height="99.692474" transform="translate(0.164124 0.164124)" fill="white" fill-opacity="0"/>
		</clipPath>
	</defs>
	<rect id="Layer_1" rx="0.000000" width="319.671753" height="99.692474" transform="translate(0.164124 0.164124)" fill="#FFFFFF" fill-opacity="0"/>
	<g clip-path="url(#clip889_26)">
		<path id="Vector" d="M56.68 11.01L47.2 4.09L46.14 3.32L44.56 2.16L41.58 0L36.3 3.85L35.97 4.09L34.33 5.29L34.33 66.41L25.04 46.94L25.04 24.95L21.83 22.6L16.21 18.51L13.23 20.69L10.6 22.61L7.1 25.17L7.09 25.17L6.61 25.52L6.02 25.95L0 30.34L0 100.02C1.98 99.24 4.21 98.54 6.61 97.93L6.61 33.71L8.93 32.02L13.23 28.87L13.23 96.57C16.91 95.98 20.88 95.58 25.04 95.4L25.04 65.76L34.33 85.23L34.33 95.4C35.6 95.45 36.86 95.53 38.09 95.62C40.89 95.84 43.58 96.16 46.14 96.58L46.14 11.51L52.75 16.33L52.75 97.93C55.15 98.54 57.37 99.24 59.36 100.02L59.36 12.97L56.68 11.01Z" fill="#F2ECDE" fill-opacity="1.000000" fill-rule="nonzero"/>
		<path id="Vector" d="M92.65 31.38L98.72 31.38L124.22 69.09L124.22 31.38L130.63 31.38L130.63 79.64L124.64 79.64L99.06 42.07L99.06 79.64L92.65 79.64L92.65 31.38Z" fill="#F2ECDE" fill-opacity="1.000000" fill-rule="nonzero"/>
		<path id="Vector" d="M142.87 76.71C140.41 74.39 139.18 71.35 139.18 67.58L139.18 58.07C139.18 54.02 140.41 50.78 142.87 48.35C145.33 45.91 148.58 44.69 152.62 44.69L158.28 44.69C162.18 44.69 165.33 45.89 167.72 48.28C170.11 50.67 171.31 53.84 171.31 57.79L171.31 64.27L145.59 64.27L145.59 67.58C145.59 69.69 146.24 71.39 147.52 72.68C148.81 73.97 150.51 74.61 152.62 74.61L157.93 74.61C160 74.61 161.68 74.07 162.96 72.99C164.25 71.91 164.89 70.47 164.89 68.68L171.17 68.68C171.17 72.13 169.95 74.91 167.51 77.02C165.08 79.14 161.86 80.2 157.86 80.2L152.62 80.2C148.58 80.2 145.33 79.04 142.87 76.72L142.87 76.71ZM164.89 59.16L164.89 57.79C164.89 55.49 164.28 53.65 163.07 52.27C161.85 50.89 160.25 50.2 158.28 50.2L152.62 50.2C150.51 50.2 148.81 50.93 147.52 52.37C146.24 53.82 145.59 55.74 145.59 58.13L145.59 59.16L164.89 59.16L164.89 59.16Z" fill="#F2ECDE" fill-opacity="1.000000" fill-rule="nonzero"/>
		<path id="Vector" d="M186.95 62.13L174.47 45.24L181.78 45.24L190.67 57.3L199.57 45.24L206.87 45.24L194.4 62.13L207.35 79.64L200.12 79.64L190.67 66.89L181.23 79.64L173.99 79.64L186.95 62.13Z" fill="#F2ECDE" fill-opacity="1.000000" fill-rule="nonzero"/>
		<path id="Vector" d="M214.12 39.48C213.29 38.68 212.87 37.64 212.87 36.35C212.87 35.06 213.29 34.02 214.12 33.21C214.94 32.41 216.02 32.01 217.35 32.01C218.69 32.01 219.75 32.41 220.56 33.21C221.36 34.02 221.76 35.06 221.76 36.35C221.76 37.63 221.36 38.68 220.56 39.48C219.75 40.29 218.68 40.69 217.35 40.69C216.03 40.69 214.94 40.29 214.12 39.48ZM214.12 45.24L220.53 45.24L220.53 79.64L214.12 79.64L214.12 45.24Z" fill="#F2ECDE" fill-opacity="1.000000" fill-rule="nonzero"/>
		<path id="Vector" d="M234.07 76.81C232.02 74.56 231 71.6 231 67.92L231 45.24L237.41 45.24L237.41 68.06C237.41 69.99 237.9 71.55 238.86 72.75C239.83 73.94 241.09 74.54 242.65 74.54L246.79 74.54C248.72 74.54 250.49 73.76 252.1 72.19C253.7 70.63 254.76 68.66 255.27 66.26L255.27 45.24L261.68 45.24L261.68 79.64L255.61 79.64L255.61 74.67C254.51 76.28 253.13 77.6 251.48 78.64C249.82 79.68 248.19 80.19 246.58 80.19L242.17 80.19C238.82 80.19 236.11 79.06 234.07 76.81L234.07 76.81Z" fill="#F2ECDE" fill-opacity="1.000000" fill-rule="nonzero"/>
		<path id="Vector" d="M317.16 47.76C319.05 49.8 319.99 52.59 319.99 56.13L319.99 79.64L313.58 79.64L313.58 56.06C313.58 54.32 313.17 52.93 312.34 51.89C311.51 50.85 310.43 50.34 309.1 50.34L305.51 50.34C303.77 50.34 302.31 50.95 301.14 52.16C299.97 53.38 299.22 55.05 298.9 57.16L298.9 79.63L292.42 79.63L292.42 56.33C292.42 54.45 292.04 52.98 291.28 51.92C290.52 50.87 289.5 50.34 288.21 50.34L284.7 50.34C282.95 50.34 281.43 51.08 280.15 52.58C278.86 54.07 278.06 56.04 277.73 58.47L277.73 79.63L271.32 79.63L271.32 45.24L277.46 45.24L277.46 49.85C278.38 48.25 279.51 46.98 280.87 46.06C282.22 45.14 283.61 44.68 285.04 44.68L289.04 44.68C290.88 44.68 292.47 45.14 293.83 46.06C295.18 46.98 296.25 48.29 297.03 49.99C298.04 48.25 299.28 46.93 300.75 46.03C302.22 45.13 303.81 44.69 305.51 44.69L309.58 44.69C312.75 44.69 315.28 45.71 317.16 47.75L317.16 47.76Z" fill="#F2ECDE" fill-opacity="1.000000" fill-rule="nonzero"/>
	</g>
</svg>
